On The Buses: Stan's job is secure, as bus drivers are hard to come by, and his overtime prospects are good, until the bus company decide to revoke a long standing rule and employ women bus drivers. Aghast at the thought of no overtime and, therefore, less wages, he joins forces with his long time work colleague Jack to sabotage the new female employees.

Format : MPEG-4
Format profile : Base Media / Version 2
Codec ID : mp42
File size : 900 MiB
Duration : 1h 24mn
Overall bit rate : 1 495 Kbps
Encoded date : UTC 2010-02-25 07:21:02
Tagged date : UTC 2010-02-25 12:18:02
Writing application : HandBrake 0.9.3 2008112300

Video
ID : 1
Format : AVC
Format/Info : Advanced Video Codec
Format profile : Main@L4.0
Format settings, CABAC : Yes
Format settings, ReFrames : 3 frames
Codec ID : avc1
Codec ID/Info : Advanced Video Coding
Duration : 1h 24mn
Bit rate mode : Variable
Bit rate : 1 331 Kbps
Width : 684 pixels
Height : 576 pixels
Display aspect ratio : 5:4
Frame rate mode : Variable
Frame rate : 25.000 fps
Minimum frame rate : 12.500 fps
Maximum frame rate : 25.000 fps
Resolution : 8 bits
Colorimetry : 4:2:0
Scan type : Progressive
Bits/(Pixel*Frame) : 0.135
Stream size : 801 MiB (89%)
Writing library : x264 core 65

Language : English
Encoded date : UTC 2010-02-25 07:21:02
Tagged date : UTC 2010-02-25 12:18:02
Color primaries : BT.601-6 525, BT.1358 525, BT.1700 NTSC, SMPTE 170M
Transfer characteristics : BT.709-5, BT.1361
Matrix coefficients : BT.601-6 525, BT.1358 525, BT.1700 NTSC, SMPTE 170M

Audio
ID : 2
Format : AAC
Format/Info : Advanced Audio Codec
Format version : Version 4
Format profile : LC
Format settings, SBR : No
Codec ID : 40
Duration : 1h 24mn
Bit rate mode : Variable
Bit rate : 160 Kbps
Maximum bit rate : 219 Kbps
Channel(s) : 2 channels
Channel positions : L R
Sampling rate : 48.0 KHz
Stream size : 96.3 MiB (11%)
Language : English
Encoded date : UTC 2010-02-25 07:21:02
Tagged date : UTC 2010-02-25 12:17:50